<svg width="13" height="14" viewBox="0 0 13 14" fill="none" xmlns="http://www.w3.org/2000/svg">
<path fill-rule="evenodd" clip-rule="evenodd" d="M0 7.06568C0 5.30985 0.684819 3.62593 1.90381 2.38437C3.12279 1.14281 4.77609 0.445313 6.5 0.445312C8.22391 0.445313 9.87721 1.14281 11.0962 2.38437C12.3152 3.62593 13 5.30985 13 7.06568C13 8.82151 12.3152 10.5054 11.0962 11.747C9.87721 12.9886 8.22391 13.6861 6.5 13.6861C4.77609 13.6861 3.12279 12.9886 1.90381 11.747C0.684819 10.5054 0 8.82151 0 7.06568ZM6.12907 9.8992L9.87133 5.1343L9.19533 4.58349L6.00427 8.64486L3.744 6.72672L3.18933 7.40465L6.12907 9.8992Z" fill="#1F4B43"/>
</svg>
