<svg width="19" height="18" viewBox="0 0 19 18" fill="#000" xmlns="http://www.w3.org/2000/svg">
<path d="M17.1249 1.97473C16.6231 1.36752 15.9928 0.879184 15.2795 0.544887C14.5662 0.21059 13.7877 0.0386591 12.9999 0.0414794C11.6521 0.000668537 10.3399 0.477987 9.33325 1.37523C8.32664 0.477987 7.01442 0.000668537 5.66659 0.0414794C4.87885 0.0386591 4.10029 0.21059 3.38699 0.544887C2.6737 0.879184 2.04343 1.36752 1.54159 1.97473C0.668003 3.0344 -0.245913 4.95298 0.360003 8.07973C1.32709 13.0728 8.57884 17.1703 8.885 17.3381C9.02148 17.4142 9.17515 17.4541 9.33142 17.4541C9.48768 17.4541 9.64135 17.4142 9.77784 17.3381C10.0858 17.1666 17.3376 13.0691 18.3028 8.07973C18.9124 4.95298 17.9985 3.0344 17.1249 1.97473ZM16.5071 7.73139C15.8233 11.2615 10.8531 14.545 9.33325 15.4781C7.19192 14.1856 2.78642 10.9406 2.164 7.73139C1.69375 5.3059 2.33725 3.89698 2.96059 3.14165C3.29022 2.74391 3.7038 2.42406 4.17165 2.20504C4.63949 1.98601 5.15001 1.87324 5.66659 1.87481C6.21832 1.83343 6.77136 1.93573 7.27179 2.17173C7.77222 2.40772 8.20296 2.76937 8.522 3.2214C8.60068 3.36617 8.71674 3.48719 8.8581 3.57185C8.99945 3.65651 9.16093 3.70172 9.32569 3.70275C9.49046 3.70377 9.65249 3.6606 9.79489 3.57771C9.93729 3.49482 10.0549 3.37526 10.1353 3.23148C10.4538 2.77593 10.8854 2.41123 11.3877 2.17333C11.8901 1.93542 12.4457 1.83254 12.9999 1.87481C13.5176 1.87229 14.0293 1.98461 14.4984 2.20367C14.9674 2.42272 15.382 2.74308 15.7123 3.14165C16.3338 3.89698 16.9773 5.3059 16.5071 7.73139Z" fill="#1f4b43"/>
</svg>
